<svg xmlns="http://www.w3.org/2000/svg" viewBox="0 0 32 32">
  <!-- Shield body -->
  <path d="M16 2L3 7.5V16c0 7.5 5.6 14 13 15.5C23.4 30 29 23.5 29 16V7.5L16 2z" fill="#0a0f1e"/>
  <!-- Shield fill with gradient -->
  <path d="M16 4L5 8.8V16c0 6.5 4.8 12.1 11 13.6C23.2 28.1 28 22.5 28 16V8.8L16 4z" fill="#00d9c0" opacity="0.15"/>
  <!-- Shield border -->
  <path d="M16 2L3 7.5V16c0 7.5 5.6 14 13 15.5C23.4 30 29 23.5 29 16V7.5L16 2z" fill="none" stroke="#00d9c0" stroke-width="1.8"/>
  <!-- Lock icon inside shield -->
  <rect x="11.5" y="16" width="9" height="7" rx="1.2" fill="#00d9c0"/>
  <path d="M13 16v-2.5a3 3 0 0 1 6 0V16" fill="none" stroke="#00d9c0" stroke-width="1.8" stroke-linecap="round"/>
  <circle cx="16" cy="19.5" r="1.2" fill="#0a0f1e"/>
</svg>
